<?xml version="1.0" standalone="no"?>
<!DOCTYPE svg PUBLIC "-//W3C//DTD SVG 20010904//EN"
 "http://www.w3.org/TR/2001/REC-SVG-20010904/DTD/svg10.dtd">
<svg version="1.0" xmlns="http://www.w3.org/2000/svg"
 width="700.000000pt" height="700.000000pt" viewBox="0 0 700.000000 700.000000"
 preserveAspectRatio="xMidYMid meet">
<metadata>
Created by potrace 1.14, written by Peter Selinger 2001-2017
</metadata>
<g transform="translate(0.000000,700.000000) scale(0.100000,-0.100000)"
fill="#000000" stroke="none">
<path d="M3195 6910 c-458 -47 -848 -160 -1245 -361 -466 -236 -877 -583
-1194 -1006 -598 -799 -815 -1833 -590 -2812 143 -620 440 -1161 888 -1620
279 -285 558 -490 905 -665 515 -260 1046 -378 1631 -363 538 15 987 127 1460
368 329 167 587 353 854 617 386 382 665 827 836 1332 182 536 228 1110 135
1667 -133 789 -540 1510 -1150 2032 -508 436 -1117 706 -1796 797 -136 18
-602 27 -734 14z m585 -2105 l0 -1025 1025 0 1025 0 0 -280 0 -280 -1025 0
-1025 0 0 -1025 0 -1025 -280 0 -280 0 0 1025 0 1025 -1025 0 -1025 0 0 280 0
280 1025 0 1025 0 0 1025 0 1025 280 0 280 0 0 -1025z"/>
</g>
</svg>
