<svg id="Слой_1" data-name="Слой 1" xmlns="http://www.w3.org/2000/svg" viewBox="0 0 48 48"><path d="M13.79,37.3a8.61,8.61,0,0,1-4-.87,6.07,6.07,0,0,1-2.58-2.51,8,8,0,0,1-.9-3.86V19a7.92,7.92,0,0,1,.9-3.88,6,6,0,0,1,2.58-2.49,8.61,8.61,0,0,1,4-.87,8.57,8.57,0,0,1,4,.87,6.1,6.1,0,0,1,2.59,2.49,7.85,7.85,0,0,1,.9,3.85v11a8,8,0,0,1-.9,3.86,6.15,6.15,0,0,1-2.59,2.51A8.57,8.57,0,0,1,13.79,37.3Zm0-3.27a3.72,3.72,0,0,0,2.84-1,4.16,4.16,0,0,0,1-2.94V19a4.17,4.17,0,0,0-1-3,3.75,3.75,0,0,0-2.84-1,3.76,3.76,0,0,0-2.83,1,4.13,4.13,0,0,0-1,3v11A4.13,4.13,0,0,0,11,33,3.72,3.72,0,0,0,13.79,34Z"/><path d="M26.94,37V12.14h3.68V25.77h3.29l5-7.51H43l-6,9L43.13,37H38.91l-5-8H30.62v8Z"/></svg>