<svg id="Слой_1" data-name="Слой 1" xmlns="http://www.w3.org/2000/svg" xmlns:xlink="http://www.w3.org/1999/xlink" viewBox="0 0 600 600"><defs><style>.cls-1{fill:url(#Безымянный_градиент_133);}.cls-2{fill:#fff;}</style><linearGradient id="Безымянный_градиент_133" x1="-49.39" y1="98.31" x2="649.33" y2="501.72" gradientUnits="userSpaceOnUse"><stop offset="0.5" stop-color="#08c"/><stop offset="0.86" stop-color="#2d4f9d"/><stop offset="1" stop-color="#403889"/></linearGradient></defs><path class="cls-1" d="M595.34,202.79A198,198,0,0,0,452.76,12.4a194.85,194.85,0,0,0-33.85-6.64,8.92,8.92,0,0,1-2.42-1.08H4.66v413a80.41,80.41,0,0,1,2,8.09C13.84,474.54,36.26,515,73.31,547.31a192.33,192.33,0,0,0,88.84,43.93,194.32,194.32,0,0,0,39.46,4.08H595.3v-6.16Q595.3,396,595.34,202.79Z"/><rect class="cls-2" x="129.62" y="145.4" width="335.08" height="38.54"/><rect class="cls-2" x="129.62" y="252.5" width="335.08" height="38.54"/><rect class="cls-2" x="127.51" y="363.55" width="167.79" height="38.54"/><polygon class="cls-2" points="531.17 402.54 463.66 402.54 463.66 335.02 409.73 335.02 409.73 402.54 342.21 402.54 342.21 456.47 409.73 456.47 409.73 523.98 463.66 523.98 463.66 456.47 531.17 456.47 531.17 402.54"/></svg>